{
  "asset": {
    "version": "2.0",
    "generator": "babylon.js glTF exporter for 3dsmax 2023 v20240312.5"
  },
  "scene": 0,
  "scenes": [
    {
      "nodes": [
        0
      ]
    }
  ],
  "nodes": [
    {
      "mesh": 0,
      "translation": [
        -0.206657365,
        -0.15,
        0.740568459
      ],
      "rotation": [
        0.0,
        -1.0,
        0.0,
        4.371139E-08
      ],
      "name": "Módulo 1"
    }
  ],
  "meshes": [
    {
      "primitives": [
        {
          "attributes": {
            "POSITION": 1,
            "NORMAL": 2,
            "TEXCOORD_0": 3,
            "TEXCOORD_1": 4
          },
          "indices": 0,
          "material": 0
        },
        {
          "attributes": {
            "POSITION": 6,
            "NORMAL": 7,
            "TEXCOORD_0": 8,
            "TEXCOORD_1": 9
          },
          "indices": 5,
          "material": 1
        },
        {
          "attributes": {
            "POSITION": 11,
            "NORMAL": 12,
            "TEXCOORD_0": 13,
            "TEXCOORD_1": 14
          },
          "indices": 10,
          "material": 2
        },
        {
          "attributes": {
            "POSITION": 16,
            "NORMAL": 17,
            "TEXCOORD_0": 18,
            "TEXCOORD_1": 19
          },
          "indices": 15,
          "material": 3
        },
        {
          "attributes": {
            "POSITION": 21,
            "NORMAL": 22,
            "TEXCOORD_0": 23,
            "TEXCOORD_1": 24
          },
          "indices": 20,
          "material": 4
        },
        {
          "attributes": {
            "POSITION": 26,
            "NORMAL": 27,
            "TEXCOORD_0": 28,
            "TEXCOORD_1": 29
          },
          "indices": 25,
          "material": 5
        },
        {
          "attributes": {
            "POSITION": 31,
            "NORMAL": 32,
            "TEXCOORD_0": 33,
            "TEXCOORD_1": 34
          },
          "indices": 30,
          "material": 6
        }
      ],
      "name": "Módulo 1"
    }
  ],
  "accessors": [
    {
      "bufferView": 0,
      "componentType": 5123,
      "count": 2892,
      "type": "SCALAR",
      "name": "accessorIndices"
    },
    {
      "bufferView": 1,
      "componentType": 5126,
      "count": 1282,
      "max": [
        0.455576241,
        1.18999922,
        1.1375879
      ],
      "min": [
        -0.952908,
        0.149999961,
        -0.099999994
      ],
      "type": "VEC3",
      "name": "accessorPositions"
    },
    {
      "bufferView": 1,
      "byteOffset": 15384,
      "componentType": 5126,
      "count": 1282,
      "type": "VEC3",
      "name": "accessorNormals"
    },
    {
      "bufferView": 2,
      "componentType": 5126,
      "count": 1282,
      "type": "VEC2",
      "name": "accessorUVs"
    },
    {
      "bufferView": 2,
      "byteOffset": 10256,
      "componentType": 5126,
      "count": 1282,
      "type": "VEC2",
      "name": "accessorUV2s"
    },
    {
      "bufferView": 0,
      "byteOffset": 5784,
      "componentType": 5123,
      "count": 1020,
      "type": "SCALAR",
      "name": "accessorIndices"
    },
    {
      "bufferView": 1,
      "byteOffset": 30768,
      "componentType": 5126,
      "count": 307,
      "max": [
        0.45257622,
        1.21,
        0.9774745
      ],
      "min": [
        -0.7044831,
        0.5742456,
        -0.02852539
      ],
      "type": "VEC3",
      "name": "accessorPositions"
    },
    {
      "bufferView": 1,
      "byteOffset": 34452,
      "componentType": 5126,
      "count": 307,
      "type": "VEC3",
      "name": "accessorNormals"
    },
    {
      "bufferView": 2,
      "byteOffset": 20512,
      "componentType": 5126,
      "count": 307,
      "type": "VEC2",
      "name": "accessorUVs"
    },
    {
      "bufferView": 2,
      "byteOffset": 22968,
      "componentType": 5126,
      "count": 307,
      "type": "VEC2",
      "name": "accessorUV2s"
    },
    {
      "bufferView": 0,
      "byteOffset": 7824,
      "componentType": 5123,
      "count": 252,
      "type": "SCALAR",
      "name": "accessorIndices"
    },
    {
      "bufferView": 1,
      "byteOffset": 38136,
      "componentType": 5126,
      "count": 168,
      "max": [
        0.451334149,
        0.93,
        1.13334572
      ],
      "min": [
        -0.9486658,
        0.299999982,
        -0.099999994
      ],
      "type": "VEC3",
      "name": "accessorPositions"
    },
    {
      "bufferView": 1,
      "byteOffset": 40152,
      "componentType": 5126,
      "count": 168,
      "type": "VEC3",
      "name": "accessorNormals"
    },
    {
      "bufferView": 2,
      "byteOffset": 25424,
      "componentType": 5126,
      "count": 168,
      "type": "VEC2",
      "name": "accessorUVs"
    },
    {
      "bufferView": 2,
      "byteOffset": 26768,
      "componentType": 5126,
      "count": 168,
      "type": "VEC2",
      "name": "accessorUV2s"
    },
    {
      "bufferView": 0,
      "byteOffset": 8328,
      "componentType": 5123,
      "count": 2616,
      "type": "SCALAR",
      "name": "accessorIndices"
    },
    {
      "bufferView": 1,
      "byteOffset": 42168,
      "componentType": 5126,
      "count": 996,
      "max": [
        -0.14726688,
        0.215339,
        1.07189178
      ],
      "min": [
        -0.773165643,
        0.149174333,
        -0.09129062
      ],
      "type": "VEC3",
      "name": "accessorPositions"
    },
    {
      "bufferView": 1,
      "byteOffset": 54120,
      "componentType": 5126,
      "count": 996,
      "type": "VEC3",
      "name": "accessorNormals"
    },
    {
      "bufferView": 2,
      "byteOffset": 28112,
      "componentType": 5126,
      "count": 996,
      "type": "VEC2",
      "name": "accessorUVs"
    },
    {
      "bufferView": 2,
      "byteOffset": 36080,
      "componentType": 5126,
      "count": 996,
      "type": "VEC2",
      "name": "accessorUV2s"
    },
    {
      "bufferView": 0,
      "byteOffset": 13560,
      "componentType": 5123,
      "count": 996,
      "type": "SCALAR",
      "name": "accessorIndices"
    },
    {
      "bufferView": 1,
      "byteOffset": 66072,
      "componentType": 5126,
      "count": 436,
      "max": [
        -0.166760936,
        1.14739823,
        0.9544824
      ],
      "min": [
        -0.7280484,
        0.215339,
        -0.0721160844
      ],
      "type": "VEC3",
      "name": "accessorPositions"
    },
    {
      "bufferView": 1,
      "byteOffset": 71304,
      "componentType": 5126,
      "count": 436,
      "type": "VEC3",
      "name": "accessorNormals"
    },
    {
      "bufferView": 2,
      "byteOffset": 44048,
      "componentType": 5126,
      "count": 436,
      "type": "VEC2",
      "name": "accessorUVs"
    },
    {
      "bufferView": 2,
      "byteOffset": 47536,
      "componentType": 5126,
      "count": 436,
      "type": "VEC2",
      "name": "accessorUV2s"
    },
    {
      "bufferView": 0,
      "byteOffset": 15552,
      "componentType": 5123,
      "count": 6,
      "type": "SCALAR",
      "name": "accessorIndices"
    },
    {
      "bufferView": 1,
      "byteOffset": 76536,
      "componentType": 5126,
      "count": 6,
      "max": [
        -0.243304521,
        1.14739823,
        0.949951
      ],
      "min": [
        -0.5649821,
        0.9344442,
        0.875566065
      ],
      "type": "VEC3",
      "name": "accessorPositions"
    },
    {
      "bufferView": 1,
      "byteOffset": 76608,
      "componentType": 5126,
      "count": 6,
      "type": "VEC3",
      "name": "accessorNormals"
    },
    {
      "bufferView": 2,
      "byteOffset": 51024,
      "componentType": 5126,
      "count": 6,
      "type": "VEC2",
      "name": "accessorUVs"
    },
    {
      "bufferView": 2,
      "byteOffset": 51072,
      "componentType": 5126,
      "count": 6,
      "type": "VEC2",
      "name": "accessorUV2s"
    },
    {
      "bufferView": 0,
      "byteOffset": 15564,
      "componentType": 5123,
      "count": 6,
      "type": "SCALAR",
      "name": "accessorIndices"
    },
    {
      "bufferView": 1,
      "byteOffset": 76680,
      "componentType": 5126,
      "count": 4,
      "max": [
        -0.234013721,
        0.9376613,
        0.8800975
      ],
      "min": [
        -0.5649821,
        0.9376613,
        0.6545258
      ],
      "type": "VEC3",
      "name": "accessorPositions"
    },
    {
      "bufferView": 1,
      "byteOffset": 76728,
      "componentType": 5126,
      "count": 4,
      "type": "VEC3",
      "name": "accessorNormals"
    },
    {
      "bufferView": 2,
      "byteOffset": 51120,
      "componentType": 5126,
      "count": 4,
      "type": "VEC2",
      "name": "accessorUVs"
    },
    {
      "bufferView": 2,
      "byteOffset": 51152,
      "componentType": 5126,
      "count": 4,
      "type": "VEC2",
      "name": "accessorUV2s"
    }
  ],
  "bufferViews": [
    {
      "buffer": 0,
      "byteLength": 15576,
      "name": "bufferViewScalar"
    },
    {
      "buffer": 0,
      "byteOffset": 15576,
      "byteLength": 76776,
      "byteStride": 12,
      "name": "bufferViewFloatVec3"
    },
    {
      "buffer": 0,
      "byteOffset": 92352,
      "byteLength": 51184,
      "byteStride": 8,
      "name": "bufferViewFloatVec2"
    }
  ],
  "buffers": [
    {
      "uri": "base_baking.bin",
      "byteLength": 143536
    }
  ],
  "materials": [
    {
      "pbrMetallicRoughness": {
        "baseColorFactor": [
          0.74820143,
          0.74820143,
          0.74820143,
          1.0
        ],
        "metallicFactor": 0.0,
        "roughnessFactor": 0.3
      },
      "doubleSided": true,
      "name": "Material #18",
      "extras": {
        "directIntensity": 1.0,
        "emissiveIntensity": 1.0,
        "environmentIntensity": 1.0,
        "specularIntensity": 1.0,
        "cameraContrast": 1.0,
        "lightmapTexture": {
          "name": "Lightmap-0_comp_light.jpg",
          "level": 1.0,
          "hasAlpha": true,
          "getAlphaFromRGB": false,
          "coordinatesMode": 0,
          "isCube": false,
          "uOffset": 0.0,
          "vOffset": 0.0,
          "uScale": 1.0,
          "vScale": 1.0,
          "uRotationCenter": 0.5,
          "vRotationCenter": 0.5,
          "wRotationCenter": 0.5,
          "invertY": false,
          "uAng": 0.0,
          "vAng": 0.0,
          "wAng": 0.0,
          "wrapU": 1,
          "wrapV": 1,
          "coordinatesIndex": 1,
          "isRenderTarget": false,
          "renderTargetSize": 0,
          "mirrorPlane": null,
          "renderList": null,
          "animations": [],
          "extensions": null,
          "samplingMode": 3
        },
        "babylonSeparateCullingPass": false
      }
    },
    {
      "pbrMetallicRoughness": {
        "baseColorTexture": {
          "index": 1
        },
        "metallicFactor": 0.0
      },
      "normalTexture": {
        "index": 0
      },
      "doubleSided": true,
      "name": "Material #19",
      "extras": {
        "directIntensity": 1.0,
        "emissiveIntensity": 1.0,
        "environmentIntensity": 1.0,
        "specularIntensity": 1.0,
        "cameraContrast": 1.0,
        "lightmapTexture": {
          "name": "Lightmap-0_comp_light.jpg",
          "level": 1.0,
          "hasAlpha": true,
          "getAlphaFromRGB": false,
          "coordinatesMode": 0,
          "isCube": false,
          "uOffset": 0.0,
          "vOffset": 0.0,
          "uScale": 1.0,
          "vScale": 1.0,
          "uRotationCenter": 0.5,
          "vRotationCenter": 0.5,
          "wRotationCenter": 0.5,
          "invertY": false,
          "uAng": 0.0,
          "vAng": 0.0,
          "wAng": 0.0,
          "wrapU": 1,
          "wrapV": 1,
          "coordinatesIndex": 1,
          "isRenderTarget": false,
          "renderTargetSize": 0,
          "mirrorPlane": null,
          "renderList": null,
          "animations": [],
          "extensions": null,
          "samplingMode": 3
        },
        "babylonSeparateCullingPass": false
      }
    },
    {
      "pbrMetallicRoughness": {
        "baseColorTexture": {
          "index": 2
        },
        "metallicFactor": 0.0,
        "roughnessFactor": 0.85
      },
      "doubleSided": true,
      "name": "Material #16",
      "extras": {
        "directIntensity": 1.0,
        "emissiveIntensity": 1.0,
        "environmentIntensity": 1.0,
        "specularIntensity": 1.0,
        "cameraContrast": 1.0,
        "lightmapTexture": {
          "name": "Lightmap-0_comp_light.jpg",
          "level": 1.0,
          "hasAlpha": true,
          "getAlphaFromRGB": false,
          "coordinatesMode": 0,
          "isCube": false,
          "uOffset": 0.0,
          "vOffset": 0.0,
          "uScale": 1.0,
          "vScale": 1.0,
          "uRotationCenter": 0.5,
          "vRotationCenter": 0.5,
          "wRotationCenter": 0.5,
          "invertY": false,
          "uAng": 0.0,
          "vAng": 0.0,
          "wAng": 0.0,
          "wrapU": 1,
          "wrapV": 1,
          "coordinatesIndex": 1,
          "isRenderTarget": false,
          "renderTargetSize": 0,
          "mirrorPlane": null,
          "renderList": null,
          "animations": [],
          "extensions": null,
          "samplingMode": 3
        },
        "babylonSeparateCullingPass": false
      }
    },
    {
      "pbrMetallicRoughness": {
        "baseColorFactor": [
          0.10071943,
          0.10071943,
          0.10071943,
          1.0
        ],
        "metallicFactor": 0.0,
        "roughnessFactor": 0.9
      },
      "doubleSided": true,
      "name": "Material #47",
      "extras": {
        "directIntensity": 1.0,
        "emissiveIntensity": 1.0,
        "environmentIntensity": 1.0,
        "specularIntensity": 1.0,
        "cameraContrast": 1.0,
        "lightmapTexture": {
          "name": "Lightmap-0_comp_light.jpg",
          "level": 1.0,
          "hasAlpha": true,
          "getAlphaFromRGB": false,
          "coordinatesMode": 0,
          "isCube": false,
          "uOffset": 0.0,
          "vOffset": 0.0,
          "uScale": 1.0,
          "vScale": 1.0,
          "uRotationCenter": 0.5,
          "vRotationCenter": 0.5,
          "wRotationCenter": 0.5,
          "invertY": false,
          "uAng": 0.0,
          "vAng": 0.0,
          "wAng": 0.0,
          "wrapU": 1,
          "wrapV": 1,
          "coordinatesIndex": 1,
          "isRenderTarget": false,
          "renderTargetSize": 0,
          "mirrorPlane": null,
          "renderList": null,
          "animations": [],
          "extensions": null,
          "samplingMode": 3
        },
        "babylonSeparateCullingPass": false
      }
    },
    {
      "pbrMetallicRoughness": {
        "baseColorFactor": [
          0.5,
          0.5,
          0.5,
          1.0
        ],
        "metallicFactor": 0.0,
        "roughnessFactor": 0.0
      },
      "doubleSided": true,
      "name": "base",
      "extras": {
        "directIntensity": 1.0,
        "emissiveIntensity": 1.0,
        "environmentIntensity": 1.0,
        "specularIntensity": 1.0,
        "cameraContrast": 1.0,
        "lightmapTexture": {
          "name": "Lightmap-0_comp_light.jpg",
          "level": 1.0,
          "hasAlpha": true,
          "getAlphaFromRGB": false,
          "coordinatesMode": 0,
          "isCube": false,
          "uOffset": 0.0,
          "vOffset": 0.0,
          "uScale": 1.0,
          "vScale": 1.0,
          "uRotationCenter": 0.5,
          "vRotationCenter": 0.5,
          "wRotationCenter": 0.5,
          "invertY": false,
          "uAng": 0.0,
          "vAng": 0.0,
          "wAng": 0.0,
          "wrapU": 1,
          "wrapV": 1,
          "coordinatesIndex": 1,
          "isRenderTarget": false,
          "renderTargetSize": 0,
          "mirrorPlane": null,
          "renderList": null,
          "animations": [],
          "extensions": null,
          "samplingMode": 3
        },
        "babylonSeparateCullingPass": false
      }
    },
    {
      "pbrMetallicRoughness": {
        "baseColorTexture": {
          "index": 3
        },
        "metallicFactor": 0.0,
        "roughnessFactor": 0.0
      },
      "doubleSided": true,
      "name": "display",
      "extras": {
        "directIntensity": 1.0,
        "emissiveIntensity": 1.0,
        "environmentIntensity": 1.0,
        "specularIntensity": 1.0,
        "cameraContrast": 1.0,
        "lightmapTexture": {
          "name": "Lightmap-0_comp_light.jpg",
          "level": 1.0,
          "hasAlpha": true,
          "getAlphaFromRGB": false,
          "coordinatesMode": 0,
          "isCube": false,
          "uOffset": 0.0,
          "vOffset": 0.0,
          "uScale": 1.0,
          "vScale": 1.0,
          "uRotationCenter": 0.5,
          "vRotationCenter": 0.5,
          "wRotationCenter": 0.5,
          "invertY": false,
          "uAng": 0.0,
          "vAng": 0.0,
          "wAng": 0.0,
          "wrapU": 1,
          "wrapV": 1,
          "coordinatesIndex": 1,
          "isRenderTarget": false,
          "renderTargetSize": 0,
          "mirrorPlane": null,
          "renderList": null,
          "animations": [],
          "extensions": null,
          "samplingMode": 3
        },
        "babylonSeparateCullingPass": false
      }
    },
    {
      "pbrMetallicRoughness": {
        "baseColorTexture": {
          "index": 5
        },
        "metallicFactor": 0.0,
        "roughnessFactor": 0.0
      },
      "normalTexture": {
        "index": 4
      },
      "doubleSided": true,
      "name": "teclado",
      "extras": {
        "directIntensity": 1.0,
        "emissiveIntensity": 1.0,
        "environmentIntensity": 1.0,
        "specularIntensity": 1.0,
        "cameraContrast": 1.0,
        "lightmapTexture": {
          "name": "Lightmap-0_comp_light.jpg",
          "level": 1.0,
          "hasAlpha": true,
          "getAlphaFromRGB": false,
          "coordinatesMode": 0,
          "isCube": false,
          "uOffset": 0.0,
          "vOffset": 0.0,
          "uScale": 1.0,
          "vScale": 1.0,
          "uRotationCenter": 0.5,
          "vRotationCenter": 0.5,
          "wRotationCenter": 0.5,
          "invertY": false,
          "uAng": 0.0,
          "vAng": 0.0,
          "wAng": 0.0,
          "wrapU": 1,
          "wrapV": 1,
          "coordinatesIndex": 1,
          "isRenderTarget": false,
          "renderTargetSize": 0,
          "mirrorPlane": null,
          "renderList": null,
          "animations": [],
          "extensions": null,
          "samplingMode": 3
        },
        "babylonSeparateCullingPass": false
      }
    }
  ],
  "textures": [
    {
      "sampler": 0,
      "source": 0,
      "name": "fabric_normal.jpg"
    },
    {
      "sampler": 0,
      "source": 1,
      "name": "fabric_CrayolasCadet_albedo.jpg"
    },
    {
      "sampler": 0,
      "source": 2,
      "name": "oak_natural_albedo.jpg"
    },
    {
      "sampler": 0,
      "source": 3,
      "name": "wallpaper_pc.jpg"
    },
    {
      "sampler": 0,
      "source": 4,
      "name": "pc_apple_01_normal.jpg"
    },
    {
      "sampler": 0,
      "source": 5,
      "name": "pc_apple_01.jpg"
    }
  ],
  "images": [
    {
      "uri": "fabric_normal.jpg"
    },
    {
      "uri": "fabric_CrayolasCadet_albedo.jpg"
    },
    {
      "uri": "oak_natural_albedo.jpg"
    },
    {
      "uri": "wallpaper_pc.jpg"
    },
    {
      "uri": "pc_apple_01_normal.jpg"
    },
    {
      "uri": "pc_apple_01.jpg"
    }
  ],
  "samplers": [
    {
      "magFilter": 9729,
      "minFilter": 9987
    }
  ]
}